<?xml version="1.0" standalone="no"?><!DOCTYPE svg PUBLIC "-//W3C//DTD SVG 1.1//EN" "http://www.w3.org/Graphics/SVG/1.1/DTD/svg11.dtd"><svg width="200" height="200" viewBox="0 0 200 200" version="1.1" xmlns="http://www.w3.org/2000/svg" xmlns:xlink="http://www.w3.org/1999/xlink"><defs><style type="text/css"><![CDATA[
@font-face { font-family: ifont; src: url(http://at.alicdn.com/t/font_1442373896_4754455.eot?#iefix) format(embedded-opentype), url(http://at.alicdn.com/t/font_1442373896_4754455.woff) format(woff), url(http://at.alicdn.com/t/font_1442373896_4754455.ttf) format(truetype), url(http://at.alicdn.com/t/font_1442373896_4754455.svg#ifont) format(svg); }

]]></style></defs><g class="transform-group"><g transform="scale(0.1953125, 0.1953125)"><path d="M830.577778 113.777778l-637.155556 0c-37.6832 0-68.266667 30.560711-68.266667 68.266667l0 523.377778c0 37.705956 30.583467 68.266667 68.266667 68.266667l136.533333 0 0 113.777778c0 12.583822 14.085689 25.122133 26.669511 25.122133 2.571378 0-2.321067 0.773689 0 0 7.281778 1.524622 18.477511-3.959467 24.143644-9.602844L510.043022 773.688889 830.577778 773.688889c37.6832 0 68.266667-30.560711 68.266667-68.266667L898.844444 182.044444C898.844444 144.338489 868.260978 113.777778 830.577778 113.777778zM853.333333 682.666667c0 25.122133-20.388978 45.511111-45.511111 45.511111L496.344178 728.177778l-4.619378 0c-1.8432 1.001244-6.212267 5.688889-7.7824 7.236267L375.466667 843.912533 375.466667 750.933333c0-12.561067-10.171733-22.755556-22.755556-22.755556l-136.533333 0c-25.122133 0-45.511111-20.388978-45.511111-45.511111L170.666667 204.8c0-25.122133 20.388978-45.511111 45.511111-45.511111l591.644444 0c25.122133 0 45.511111 20.388978 45.511111 45.511111L853.333333 682.666667zM694.044444 432.355556m-45.511111 0a2 2 0 1 0 91.022222 0 2 2 0 1 0-91.022222 0ZM512 432.355556m-45.511111 0a2 2 0 1 0 91.022222 0 2 2 0 1 0-91.022222 0ZM329.955556 432.355556m-45.511111 0a2 2 0 1 0 91.022222 0 2 2 0 1 0-91.022222 0Z" fill="#FA7373"></path></g></g></svg>