<?xml version="1.0" standalone="no"?><!DOCTYPE svg PUBLIC "-//W3C//DTD SVG 1.1//EN" "http://www.w3.org/Graphics/SVG/1.1/DTD/svg11.dtd"><svg width="200" height="200" viewBox="0 0 200 200" version="1.1" xmlns="http://www.w3.org/2000/svg" xmlns:xlink="http://www.w3.org/1999/xlink"><defs><style type="text/css"><![CDATA[
@font-face { font-family: ifont; src: url(http://at.alicdn.com/t/font_1442373896_4754455.eot?#iefix) format(embedded-opentype), url(http://at.alicdn.com/t/font_1442373896_4754455.woff) format(woff), url(http://at.alicdn.com/t/font_1442373896_4754455.ttf) format(truetype), url(http://at.alicdn.com/t/font_1442373896_4754455.svg#ifont) format(svg); }

]]></style></defs><g class="transform-group"><g transform="scale(0.1953125, 0.1953125)"><path d="M913.066667 520.533333 558.933333 874.666667c0 0-19.2 21.333333-46.933333 21.333333-25.6 0-46.933333-21.333333-46.933333-21.333333L110.933333 520.533333c0 0-68.266667-36.266667-68.266667-162.133333C42.666667 232.533333 147.2 128 273.066667 128c64 0 121.6 25.6 162.133333 66.133333l74.666667 85.333333 74.666667-85.333333c42.666667-40.533333 98.133333-66.133333 162.133333-66.133333 128 0 230.4 104.533333 230.4 232.533333C981.333333 486.4 913.066667 520.533333 913.066667 520.533333zM750.933333 211.2c-40.533333 0-76.8 17.066667-102.4 42.666667l-128 125.866667-12.8 0-128-125.866667c-25.6-25.6-61.866667-42.666667-102.4-42.666667C192 211.2 125.866667 277.333333 125.866667 360.533333c0 34.133333 12.8 66.133333 34.133333 91.733333L512 802.133333l352-352c0 0 34.133333-21.333333 34.133333-91.733333C898.133333 277.333333 832 211.2 750.933333 211.2z" fill="#FA7373"></path></g></g></svg>