<?xml version="1.0" standalone="no"?><!DOCTYPE svg PUBLIC "-//W3C//DTD SVG 1.1//EN" "http://www.w3.org/Graphics/SVG/1.1/DTD/svg11.dtd"><svg width="200" height="200" viewBox="0 0 200 200" version="1.1" xmlns="http://www.w3.org/2000/svg" xmlns:xlink="http://www.w3.org/1999/xlink"><defs><style type="text/css"><![CDATA[
@font-face { font-family: ifont; src: url(http://at.alicdn.com/t/font_1442373896_4754455.eot?#iefix) format(embedded-opentype), url(http://at.alicdn.com/t/font_1442373896_4754455.woff) format(woff), url(http://at.alicdn.com/t/font_1442373896_4754455.ttf) format(truetype), url(http://at.alicdn.com/t/font_1442373896_4754455.svg#ifont) format(svg); }

]]></style></defs><g class="transform-group"><g transform="scale(0.1953125, 0.1953125)"><path d="M852.463694 377.261273l-125.784798 0 0 52.379974 125.784798 0c28.927843 0 52.379974 23.453155 52.379974 52.377928l0 372.519272c0 28.92682-23.452131 52.378951-52.379974 52.378951L171.533236 906.917398c-28.927843 0-52.379974-23.452131-52.379974-52.378951L119.153262 482.018152c0-28.924773 23.452131-52.377928 52.379974-52.377928l125.784798 0 0-52.379974-125.784798 0c-57.852616 0-104.756879 46.907333-104.756879 104.756879l0 372.519272c0 57.851593 46.905286 104.759949 104.756879 104.759949l680.928411 0c57.855686 0 104.760972-46.908356 104.760972-104.759949L957.222619 482.018152C957.224666 424.168606 910.317333 377.261273 852.463694 377.261273zM339.924411 284.241716 485.810013 138.333602l0 490.313072c0 14.473643 11.711739 26.189476 26.189476 26.189476s26.189476-11.713786 26.189476-26.189476L538.188964 141.352355l142.587486 142.861732c5.13802 5.140067 11.840676 7.698333 18.540262 7.698333 6.701632 0 13.403265-2.557242 18.518772-7.646144 10.229992-10.232039 10.229992-26.804483 0.023536-37.033451L529.083585 58.07365c-4.886287-4.936429-11.585873-7.697309-18.518772-7.697309-0.024559 0-0.024559 0-0.024559 0-6.928806 0-13.579273 2.76088-18.491143 7.67275L302.867424 247.207241c-10.232039 10.228969-10.232039 26.803459 0 37.033451C313.120952 294.471708 329.695442 294.471708 339.924411 284.241716z" fill="#FA7373"></path></g></g></svg>